<svg width="658" height="946" viewBox="0 0 658 946" xmlns="http://www.w3.org/2000/svg">
  <rect fill="#FDFDFD" x="0" y="0" width="658" height="946"/>

  <!-- Article image placeholder -->
  <rect x="40" y="60" width="300" height="200" rx="4" fill="#E8E8E8"/>
  <rect x="120" y="140" width="140" height="40" rx="4" fill="#D0D0D0"/>
  <circle cx="190" cy="145" r="30" fill="#D0D0D0"/>

  <!-- Headline -->
  <rect x="40" y="290" width="400" height="20" rx="3" fill="#333333"/>
  <rect x="40" y="320" width="320" height="20" rx="3" fill="#333333"/>

  <!-- Paragraph lines -->
  <rect x="40" y="370" width="580" height="12" rx="2" fill="#CCCCCC"/>
  <rect x="40" y="394" width="560" height="12" rx="2" fill="#CCCCCC"/>
  <rect x="40" y="418" width="590" height="12" rx="2" fill="#CCCCCC"/>
  <rect x="40" y="442" width="480" height="12" rx="2" fill="#CCCCCC"/>

  <rect x="40" y="480" width="570" height="12" rx="2" fill="#CCCCCC"/>
  <rect x="40" y="504" width="600" height="12" rx="2" fill="#CCCCCC"/>
  <rect x="40" y="528" width="540" height="12" rx="2" fill="#CCCCCC"/>
  <rect x="40" y="552" width="590" height="12" rx="2" fill="#CCCCCC"/>
  <rect x="40" y="576" width="420" height="12" rx="2" fill="#CCCCCC"/>

  <!-- Second section headline -->
  <rect x="40" y="630" width="350" height="18" rx="3" fill="#333333"/>

  <!-- More paragraph lines -->
  <rect x="40" y="670" width="580" height="12" rx="2" fill="#CCCCCC"/>
  <rect x="40" y="694" width="550" height="12" rx="2" fill="#CCCCCC"/>
  <rect x="40" y="718" width="600" height="12" rx="2" fill="#CCCCCC"/>
  <rect x="40" y="742" width="500" height="12" rx="2" fill="#CCCCCC"/>
  <rect x="40" y="766" width="570" height="12" rx="2" fill="#CCCCCC"/>
  <rect x="40" y="790" width="440" height="12" rx="2" fill="#CCCCCC"/>

  <rect x="40" y="830" width="590" height="12" rx="2" fill="#CCCCCC"/>
  <rect x="40" y="854" width="560" height="12" rx="2" fill="#CCCCCC"/>
  <rect x="40" y="878" width="580" height="12" rx="2" fill="#CCCCCC"/>
  <rect x="40" y="902" width="350" height="12" rx="2" fill="#CCCCCC"/>
</svg>
